<svg xmlns="http://www.w3.org/2000/svg" x="0px" y="0px"
     width="80" height="70"
     viewBox="0 0 172 172"
     style=" fill:none;">
    <g fill="none" fill-rule="nonzero" stroke="none" stroke-width="1" stroke-linecap="butt" stroke-linejoin="miter"
       stroke-miterlimit="10" stroke-dasharray="" stroke-dashoffset="0" font-family="none"
       font-size="none" style="mix-blend-mode: normal">
        <path d="M0,172v-172h172v172z" fill="none"></path>
        <g fill="#ffffff">
            <path d="M10.75,27.95v2.15v88.15v6.45v2.15v8.6h2.15c62.13887,0 128.21895,25.65303 128.21895,25.65303l2.93105,1.14219v-20.36621c4.87761,1.21179 7.99111,2.08281 7.99111,2.08281l2.75889,0.81465v-26.52647h6.45v-90.3zM15.05,32.25h141.9v81.7h-141.9zM38.7,36.55c-1.18741,0 -2.15,0.96259 -2.15,2.15c0,1.18741 0.96259,2.15 2.15,2.15c1.18741,0 2.15,-0.96259 2.15,-2.15c0,-1.18741 -0.96259,-2.15 -2.15,-2.15zM47.3,36.55c-1.18741,0 -2.15,0.96259 -2.15,2.15c0,1.18741 0.96259,2.15 2.15,2.15c1.18741,0 2.15,-0.96259 2.15,-2.15c0,-1.18741 -0.96259,-2.15 -2.15,-2.15zM55.9,36.55c-1.18741,0 -2.15,0.96259 -2.15,2.15c0,1.18741 0.96259,2.15 2.15,2.15c1.18741,0 2.15,-0.96259 2.15,-2.15c0,-1.18741 -0.96259,-2.15 -2.15,-2.15zM64.5,36.55c-1.18741,0 -2.15,0.96259 -2.15,2.15c0,1.18741 0.96259,2.15 2.15,2.15c1.18741,0 2.15,-0.96259 2.15,-2.15c0,-1.18741 -0.96259,-2.15 -2.15,-2.15zM73.1,36.55c-1.18741,0 -2.15,0.96259 -2.15,2.15c0,1.18741 0.96259,2.15 2.15,2.15c1.18741,0 2.15,-0.96259 2.15,-2.15c0,-1.18741 -0.96259,-2.15 -2.15,-2.15zM81.7,36.55c-1.18741,0 -2.15,0.96259 -2.15,2.15c0,1.18741 0.96259,2.15 2.15,2.15c1.18741,0 2.15,-0.96259 2.15,-2.15c0,-1.18741 -0.96259,-2.15 -2.15,-2.15zM90.3,36.55c-1.18741,0 -2.15,0.96259 -2.15,2.15c0,1.18741 0.96259,2.15 2.15,2.15c1.18741,0 2.15,-0.96259 2.15,-2.15c0,-1.18741 -0.96259,-2.15 -2.15,-2.15zM98.9,36.55c-1.18741,0 -2.15,0.96259 -2.15,2.15c0,1.18741 0.96259,2.15 2.15,2.15c1.18741,0 2.15,-0.96259 2.15,-2.15c0,-1.18741 -0.96259,-2.15 -2.15,-2.15zM107.5,36.55c-1.18741,0 -2.15,0.96259 -2.15,2.15c0,1.18741 0.96259,2.15 2.15,2.15c1.18741,0 2.15,-0.96259 2.15,-2.15c0,-1.18741 -0.96259,-2.15 -2.15,-2.15zM116.1,36.55c-1.18741,0 -2.15,0.96259 -2.15,2.15c0,1.18741 0.96259,2.15 2.15,2.15c1.18741,0 2.15,-0.96259 2.15,-2.15c0,-1.18741 -0.96259,-2.15 -2.15,-2.15zM124.7,36.55c-1.18741,0 -2.15,0.96259 -2.15,2.15c0,1.18741 0.96259,2.15 2.15,2.15c1.18741,0 2.15,-0.96259 2.15,-2.15c0,-1.18741 -0.96259,-2.15 -2.15,-2.15zM133.3,36.55c-1.18741,0 -2.15,0.96259 -2.15,2.15c0,1.18741 0.96259,2.15 2.15,2.15c1.18741,0 2.15,-0.96259 2.15,-2.15c0,-1.18741 -0.96259,-2.15 -2.15,-2.15zM135.60117,45.1458c-1.18741,0 -2.15,0.96259 -2.15,2.15c0,1.18741 0.96259,2.15 2.15,2.15c1.18741,0 2.15,-0.96259 2.15,-2.15c0,-1.18741 -0.96259,-2.15 -2.15,-2.15zM36.39463,45.1542c-1.18741,0 -2.15,0.96259 -2.15,2.15c0,1.18741 0.96259,2.15 2.15,2.15c1.18741,0 2.15,-0.96259 2.15,-2.15c0,-1.18741 -0.96259,-2.15 -2.15,-2.15zM86,49.45c-13.03607,0 -23.65,10.61393 -23.65,23.65c0,13.03607 10.61393,23.65 23.65,23.65c13.03607,0 23.65,-10.61393 23.65,-23.65c0,-13.03607 -10.61393,-23.65 -23.65,-23.65zM30.0958,51.44463c-1.18741,0 -2.15,0.96259 -2.15,2.15c0,1.18741 0.96259,2.15 2.15,2.15c1.18741,0 2.15,-0.96259 2.15,-2.15c0,-1.18741 -0.96259,-2.15 -2.15,-2.15zM141.8958,51.44883c-1.18741,0 -2.15,0.96259 -2.15,2.15c0,1.18741 0.96259,2.15 2.15,2.15c1.18741,0 2.15,-0.96259 2.15,-2.15c0,-1.18741 -0.96259,-2.15 -2.15,-2.15zM21.5,53.75c-1.18741,0 -2.15,0.96259 -2.15,2.15c0,1.18741 0.96259,2.15 2.15,2.15c1.18741,0 2.15,-0.96259 2.15,-2.15c0,-1.18741 -0.96259,-2.15 -2.15,-2.15zM86,53.75c10.71218,0 19.35,8.63782 19.35,19.35c0,10.71218 -8.63782,19.35 -19.35,19.35c-10.71218,0 -19.35,-8.63782 -19.35,-19.35c0,-10.71218 8.63782,-19.35 19.35,-19.35zM150.5,53.75c-1.18741,0 -2.15,0.96259 -2.15,2.15c0,1.18741 0.96259,2.15 2.15,2.15c1.18741,0 2.15,-0.96259 2.15,-2.15c0,-1.18741 -0.96259,-2.15 -2.15,-2.15zM21.5,62.35c-1.18741,0 -2.15,0.96259 -2.15,2.15c0,1.18741 0.96259,2.15 2.15,2.15c1.18741,0 2.15,-0.96259 2.15,-2.15c0,-1.18741 -0.96259,-2.15 -2.15,-2.15zM150.5,62.35c-1.18741,0 -2.15,0.96259 -2.15,2.15c0,1.18741 0.96259,2.15 2.15,2.15c1.18741,0 2.15,-0.96259 2.15,-2.15c0,-1.18741 -0.96259,-2.15 -2.15,-2.15zM40.85,64.5c-4.72418,0 -8.6,3.87582 -8.6,8.6c0,4.72418 3.87582,8.6 8.6,8.6c4.72418,0 8.6,-3.87582 8.6,-8.6c0,-4.72418 -3.87582,-8.6 -8.6,-8.6zM129,64.5c-4.72418,0 -8.6,3.87582 -8.6,8.6c0,4.72418 3.87582,8.6 8.6,8.6c4.72418,0 8.6,-3.87582 8.6,-8.6c0,-4.72418 -3.87582,-8.6 -8.6,-8.6zM40.85,68.8c2.40029,0 4.3,1.89971 4.3,4.3c0,2.40029 -1.89971,4.3 -4.3,4.3c-2.40029,0 -4.3,-1.89971 -4.3,-4.3c0,-2.40029 1.89971,-4.3 4.3,-4.3zM129,68.8c2.40029,0 4.3,1.89971 4.3,4.3c0,2.40029 -1.89971,4.3 -4.3,4.3c-2.40029,0 -4.3,-1.89971 -4.3,-4.3c0,-2.40029 1.89971,-4.3 4.3,-4.3zM21.5,70.95c-1.18741,0 -2.15,0.96259 -2.15,2.15c0,1.18741 0.96259,2.15 2.15,2.15c1.18741,0 2.15,-0.96259 2.15,-2.15c0,-1.18741 -0.96259,-2.15 -2.15,-2.15zM150.5,70.95c-1.18741,0 -2.15,0.96259 -2.15,2.15c0,1.18741 0.96259,2.15 2.15,2.15c1.18741,0 2.15,-0.96259 2.15,-2.15c0,-1.18741 -0.96259,-2.15 -2.15,-2.15zM21.5,79.55c-1.18741,0 -2.15,0.96259 -2.15,2.15c0,1.18741 0.96259,2.15 2.15,2.15c1.18741,0 2.15,-0.96259 2.15,-2.15c0,-1.18741 -0.96259,-2.15 -2.15,-2.15zM150.5,79.55c-1.18741,0 -2.15,0.96259 -2.15,2.15c0,1.18741 0.96259,2.15 2.15,2.15c1.18741,0 2.15,-0.96259 2.15,-2.15c0,-1.18741 -0.96259,-2.15 -2.15,-2.15zM21.5,88.15c-1.18741,0 -2.15,0.96259 -2.15,2.15c0,1.18741 0.96259,2.15 2.15,2.15c1.18741,0 2.15,-0.96259 2.15,-2.15c0,-1.18741 -0.96259,-2.15 -2.15,-2.15zM150.5,88.15c-1.18741,0 -2.15,0.96259 -2.15,2.15c0,1.18741 0.96259,2.15 2.15,2.15c1.18741,0 2.15,-0.96259 2.15,-2.15c0,-1.18741 -0.96259,-2.15 -2.15,-2.15zM141.8958,90.45117c-1.18741,0 -2.15,0.96259 -2.15,2.15c0,1.18741 0.96259,2.15 2.15,2.15c1.18741,0 2.15,-0.96259 2.15,-2.15c0,-1.18741 -0.96259,-2.15 -2.15,-2.15zM30.0958,90.45537c-1.18741,0 -2.15,0.96259 -2.15,2.15c0,1.18741 0.96259,2.15 2.15,2.15c1.18741,0 2.15,-0.96259 2.15,-2.15c0,-1.18741 -0.96259,-2.15 -2.15,-2.15zM36.39043,96.7458c-1.18741,0 -2.15,0.96259 -2.15,2.15c0,1.18741 0.96259,2.15 2.15,2.15c1.18741,0 2.15,-0.96259 2.15,-2.15c0,-1.18741 -0.96259,-2.15 -2.15,-2.15zM135.60117,96.7542c-1.18741,0 -2.15,0.96259 -2.15,2.15c0,1.18741 0.96259,2.15 2.15,2.15c1.18741,0 2.15,-0.96259 2.15,-2.15c0,-1.18741 -0.96259,-2.15 -2.15,-2.15zM38.7,105.35c-1.18741,0 -2.15,0.96259 -2.15,2.15c0,1.18741 0.96259,2.15 2.15,2.15c1.18741,0 2.15,-0.96259 2.15,-2.15c0,-1.18741 -0.96259,-2.15 -2.15,-2.15zM47.3,105.35c-1.18741,0 -2.15,0.96259 -2.15,2.15c0,1.18741 0.96259,2.15 2.15,2.15c1.18741,0 2.15,-0.96259 2.15,-2.15c0,-1.18741 -0.96259,-2.15 -2.15,-2.15zM55.9,105.35c-1.18741,0 -2.15,0.96259 -2.15,2.15c0,1.18741 0.96259,2.15 2.15,2.15c1.18741,0 2.15,-0.96259 2.15,-2.15c0,-1.18741 -0.96259,-2.15 -2.15,-2.15zM64.5,105.35c-1.18741,0 -2.15,0.96259 -2.15,2.15c0,1.18741 0.96259,2.15 2.15,2.15c1.18741,0 2.15,-0.96259 2.15,-2.15c0,-1.18741 -0.96259,-2.15 -2.15,-2.15zM73.1,105.35c-1.18741,0 -2.15,0.96259 -2.15,2.15c0,1.18741 0.96259,2.15 2.15,2.15c1.18741,0 2.15,-0.96259 2.15,-2.15c0,-1.18741 -0.96259,-2.15 -2.15,-2.15zM81.7,105.35c-1.18741,0 -2.15,0.96259 -2.15,2.15c0,1.18741 0.96259,2.15 2.15,2.15c1.18741,0 2.15,-0.96259 2.15,-2.15c0,-1.18741 -0.96259,-2.15 -2.15,-2.15zM90.3,105.35c-1.18741,0 -2.15,0.96259 -2.15,2.15c0,1.18741 0.96259,2.15 2.15,2.15c1.18741,0 2.15,-0.96259 2.15,-2.15c0,-1.18741 -0.96259,-2.15 -2.15,-2.15zM98.9,105.35c-1.18741,0 -2.15,0.96259 -2.15,2.15c0,1.18741 0.96259,2.15 2.15,2.15c1.18741,0 2.15,-0.96259 2.15,-2.15c0,-1.18741 -0.96259,-2.15 -2.15,-2.15zM107.5,105.35c-1.18741,0 -2.15,0.96259 -2.15,2.15c0,1.18741 0.96259,2.15 2.15,2.15c1.18741,0 2.15,-0.96259 2.15,-2.15c0,-1.18741 -0.96259,-2.15 -2.15,-2.15zM116.1,105.35c-1.18741,0 -2.15,0.96259 -2.15,2.15c0,1.18741 0.96259,2.15 2.15,2.15c1.18741,0 2.15,-0.96259 2.15,-2.15c0,-1.18741 -0.96259,-2.15 -2.15,-2.15zM124.7,105.35c-1.18741,0 -2.15,0.96259 -2.15,2.15c0,1.18741 0.96259,2.15 2.15,2.15c1.18741,0 2.15,-0.96259 2.15,-2.15c0,-1.18741 -0.96259,-2.15 -2.15,-2.15zM133.3,105.35c-1.18741,0 -2.15,0.96259 -2.15,2.15c0,1.18741 0.96259,2.15 2.15,2.15c1.18741,0 2.15,-0.96259 2.15,-2.15c0,-1.18741 -0.96259,-2.15 -2.15,-2.15zM15.05,118.25h122.55h12.9v20.87432c-7.02,-1.97443 -60.2089,-16.2312 -135.45,-16.51972zM137.6,118.25c-1.18741,0 -2.15,0.96259 -2.15,2.15c0,1.18741 0.96259,2.15 2.15,2.15c1.18741,0 2.15,-0.96259 2.15,-2.15c0,-1.18741 -0.96259,-2.15 -2.15,-2.15zM133.3,124.7c-1.18741,0 -2.15,0.96259 -2.15,2.15c0,1.18741 0.96259,2.15 2.15,2.15c1.18741,0 2.15,-0.96259 2.15,-2.15c0,-1.18741 -0.96259,-2.15 -2.15,-2.15zM15.05,126.87939c46.67644,0.1763 85.40266,5.93363 109.65,10.729c0.00463,1.18413 0.96586,2.14161 2.15,2.1416c0.86592,-0.00028 1.64716,-0.52 1.98203,-1.31855c4.28182,0.88479 7.76082,1.67838 10.91797,2.41875v15.20117c-7.64726,-2.89064 -66.1197,-24.2641 -124.7,-24.80059zM122.55,141.9c-1.18741,0 -2.15,0.96259 -2.15,2.15c0,1.18741 0.96259,2.15 2.15,2.15c1.18741,0 2.15,-0.96259 2.15,-2.15c0,-1.18741 -0.96259,-2.15 -2.15,-2.15z"></path>
        </g>
    </g>
</svg>